<?xml version="1.0" encoding="utf-8"?>
<!-- Generator: Adobe Illustrator 25.0.1, SVG Export Plug-In . SVG Version: 6.00 Build 0)  -->
<svg version="1.1" id="Livello_1" xmlns="http://www.w3.org/2000/svg" xmlns:xlink="http://www.w3.org/1999/xlink" x="0px" y="0px"
	 viewBox="0 0 387 387" style="enable-background:new 0 0 387 387;" xml:space="preserve">
<style type="text/css">
	.st0{fill:#FFFFFF;}
</style>
<g>
	<path d="M187.5,0c4,0,8,0,12,0c6.1,0.5,12.3,0.9,18.4,1.7c35.8,4.7,67.8,18.2,96,40.7c59,46.8,85.7,124.4,67.2,197.4
		c-14.9,58.4-49.9,101.2-103.9,127.9C240.1,386,200.7,391,160,383.8c-46-8.1-84.2-30.4-114.4-66c-23.3-27.5-37.7-59.2-43.1-94.9
		C1.2,214.6,0.8,206.3,0,198c0-3,0-6,0-9c0.1-0.9,0.2-1.8,0.3-2.7c0.5-13.4,2.3-26.5,5.6-39.5C17.4,101.7,42,65.1,79.5,37.4
		C105.6,18.1,134.9,6.3,167.1,2C173.9,1.1,180.7,0.6,187.5,0z M282.8,103c-0.1-0.3-0.2-0.6-0.3-0.9c-0.8,0-1.7-0.1-2.5-0.1
		c-12.6-0.6-25.1-1.3-37.7-1.9c-1.6-0.1-2-0.7-2.5-2.1c-2.9-9.1-5.7-18.3-9-27.2c-1.7-4.5-4.4-8.7-7.1-12.8
		c-0.9-1.4-2.9-2.3-4.6-2.9c-3.2-1.1-6.8-1.4-9.7-2.9c-4.8-2.4-9.3-5.5-13.8-8.5c-6.5-4.2-13.2-8.6-20.9-9.6
		c-5.8-0.7-9.7-2.7-11.6-8.3c0-0.1-0.1-0.1-0.2-0.2c-81,13.6-150.3,91.5-138.8,188.1c10.5,88.1,83.1,140.9,143.5,147.8
		c-4.5-17.6-14.2-32-27-44.7c3-2.8,6-5.5,9.3-8.6c-8-10.4-15.8-20.7-23.9-31.1c11.2-9.8,22.7-19.8,34.6-30.2
		c-8.4-4.3-11.8-11.6-14.1-19.8c-3.2-11.4-8.3-21.9-15.6-31.3c-0.7-0.9-1-2.1-1.1-3.2c-0.8-5.9-2-11.7-4.6-17
		c-3.1-6.4-7.4-11.6-14.5-13.5c-9.2-2.5-18-6.1-26.3-10.7c-6-3.4-11.8-7.2-17.6-10.9c-1.3-0.9-2.3-2.3-3.7-3.8
		c1.1-0.3,1.4-0.4,1.8-0.4c1.7-0.1,3.3-0.2,5-0.4c14.8-1.2,29.2-3.8,42.9-9.5c3.8-1.6,3.8-1.6,3.5-5.7c-0.1-1.5-0.2-3-0.3-4.5
		c-1.1-14.1-2.3-28.2-3.3-42.3c-0.1-0.7,0.5-1.7,1-2.1c4.8-3.8,10-7.2,14.6-11.2c6.6-5.6,12.6-11.9,19.2-17.5
		c10.2-8.6,21.4-9.4,32.9-3c6.7,3.8,13.1,8.2,19.6,12.4c5.1,3.3,10.1,7,16.3,7.8c3.1,0.4,4.8,1.9,6.2,4.3c0.8,1.4,1.7,2.7,2.2,4.2
		c3.7,11,7.4,22,11,33.1c0.5,1.6,1.1,2.2,2.8,2.2c5.5,0,11,0.4,16.5,0.3c8.2,0,16.5-0.2,24.7-0.5C280.9,104,281.9,103.4,282.8,103z
		 M159.7,214.9c2.7-2.5,5.3-4.9,7.9-7.2c0.3-0.3,0.8-0.6,1.3-0.6c6.8-0.5,13.3-3.1,20.2-2c5.3,0.8,10.7,1.3,16,1.9
		c0,0.3,0.1,0.6,0.1,0.9c-1.8,0.4-3.6,1.1-5.4,1.2c-6.6,0.5-13.1,0.7-19.7,1.1c-2.2,0.1-4.5,0.5-6.6,1.1c-1.1,0.3-2,1.4-3,2.2
		c0.9,0.8,1.7,1.7,2.7,2.3c0.8,0.5,1.9,0.7,2.8,0.9c8.3,1.3,16.4,0.9,24.1-2.9c0.9-0.4,2.3-0.7,3-0.4c2.2,1.1,4.2,2.5,6.7,4
		c-2.7,1.5-4.9,3.1-7.4,3.9c-8.7,2.9-17.6,5.5-26.4,8.4c-0.7,0.2-1.6,1.1-1.8,1.8c-1.9,10,5.3,18.7,15.4,18.7c1.2,0,2.5,0,3.7-0.1
		c7.3-0.7,14.3-2,19.9-7.4c3.3-3.1,7-5.7,10.2-8.8c10.1-9.6,19.2-19.8,22.4-34.1c0,1.6,0,3.2-0.3,4.7c-1.7,7.9-5.5,14.8-9.9,21.4
		c-10.9,16.5-24.9,30.1-40.4,42.3c-4.8,3.8-9.8,7.4-15,11.2c0.9,1.4,1.5,3,2.6,4.2c3.5,3.7,7.2,7.4,10.9,10.9
		c4,3.8,8.3,7.4,12.4,11.2c1,0.9,1.7,2.1,2.7,3.4c0.3-0.7,0.5-1.1,0.6-1.5c11.3-30,24-59.4,37.4-88.5c1.6-3.5,2.1-6.8,1.7-10.6
		c-0.8-6.8-1.3-13.6-1.9-19.9c1.3-0.9,2.4-1.4,3-2.3c1.7-2.6,3.5-5.3,4.6-8.2c2.9-7.8,3-16,2.5-24.2c-0.2-4.4-0.8-8.7-1.2-13.2
		c-4.7,0.3-8.1,2-9.9,5.9c-1.2,2.5-1.7,5.2,0.8,8.4c2.2-4.1,4.1-7.7,6.3-11.9c2.9,5.1,1.7,9.8,1.9,14.5c-1.3-1.5-2.5-2.9-3.7-4.4
		c-0.4,0.1-0.7,0.3-1.1,0.4c0,1.5-0.1,3,0,4.4c0.4,3.4,1.1,6.7,1.4,10.1c0.1,1.2-0.4,2.4-0.6,3.6c-1.8-4.2-3.8-7.8-6.6-10.9
		c-0.2,0.1-0.4,0.2-0.6,0.3c0.6,7.5,1.2,15,1.8,22.5c-0.2,0.2-0.5,0.3-0.7,0.5c-2.4-1.6-4.9-3.2-7.3-5c-0.4-0.3-0.7-1.3-0.6-1.9
		c0.6-8.8,1.3-17.6,2-26.4c0.2-1.8-0.6-2.5-2.2-3c-4.6-1.3-9.1-0.9-13.6,0.2c-8.2,2-15.6,5.8-22.8,9.9c-3.8,2.1-7.7,2.8-12,2.1
		c-1.5-0.2-3-0.6-4.4-0.6c-3.5-0.2-7-0.3-10.4-0.2c-2,0.1-2.9,1.3-2.9,3.6c0.1,6.2,0.1,12.3,0,18.5c0,1.6,0.3,2.4,2,2.8
		c2.4,0.5,4.8,1.3,7.3,1.8c0.8,0.2,2,0,2.7-0.5c3.2-2,6.3-2.6,9.9,0c0.8-1.4,1.6-2.6,2.1-3.9c0.5-1.4,0.6-3,0.8-4.6
		c8.1,4.7,19.3,16.1,19.7,22c-4.7-6.9-10.6-12.4-17.9-16.8c-0.3,0.8-0.5,1.2-0.7,1.7c-1.6,3.8-2.2,4-6.2,3.7c-1.8-0.2-3.7-0.2-5.5,0
		c-1,0.1-2.6,0.6-2.7,1.2c-0.2,0.9,0.5,2.2,1.1,3c1.4,1.9,1.6,5.9,0.1,7.6c-0.4,0.5-1.3,0.8-1.9,0.8c-0.3,0-0.7-0.9-0.9-1.5
		c-0.3-0.7-0.3-1.5-0.6-2.2c-1.2-2.9-2.5-3.3-5.3-2.1c-3.1,1.3-6.1,2.6-9.2,3.8c-2.1,0.8-3.2-0.1-3.4-2.2c-0.2-2.5-0.5-5-0.3-7.5
		c0.4-5.9,1-11.7,1.5-17.8c-9.2,1.7-17.5,5.1-24.2,11.9c3.7,6.5,7.3,12.9,10.9,19.3c2.3-0.7,4.4-1.3,6.5-2
		c0.5,5.3,0.9,10.4,1.6,15.4c0.6,4.2,1.4,8.4,2.5,12.4c1,3.5,3.4,4.1,6.2,2.2c-2.3-1.1-1.9-3.1-1.6-5
		C166,218.7,165.6,217.9,159.7,214.9z M296.3,230.2c-0.7,1-1.2,1.6-1.7,2.3c-10.6,14.2-21.5,28.2-31.9,42.6
		c-17.4,24.2-33.7,49.2-46.9,76c-1.9,3.9-3.6,7.8-5.5,11.9c1.1,0,1.7,0,2.4,0c0.7-0.1,1.5-0.1,2.2-0.4c0.5-0.2,1.1-0.7,1.3-1.2
		c4.1-12.4,10.7-23.6,17.6-34.6c17.7-28.4,37.9-55.2,58.4-81.7c4-5.2,8.1-10.3,12.3-15.6c-14.8-9.1-29.3-18.1-44-27.1
		c-1.9,3-3.6,5.8-5.4,8.6c1.4,1.5,2.6,2.7,3.9,4.2c0.9-2.2,1.7-4,2.6-6C273.1,216.4,284.6,223.2,296.3,230.2z M156,88.1
		c0,0.2,0,0.5,0,0.7c23.7,4.6,47.7,8.2,70.9,15.4c0-0.3,0.1-0.7,0-1.1c-1.5-6-3.2-11.9-4.7-17.9c-0.4-1.6-1.2-2-2.8-2.1
		c-16.1-0.6-32.1-0.3-48.1,2C166.2,85.9,161.1,87.1,156,88.1z M180.4,355c11.6-14.5,11.2-47.8,0-58.4
		C180.4,316,180.4,335.5,180.4,355z M195.5,350.6c3.3-10.6,6.9-22.3,10.7-34.4c-3.5,2.9-6.6,5.4-9.7,8c-0.5,0.4-0.9,1.1-0.9,1.6
		C195.5,334.5,195.5,343.1,195.5,350.6z"/>
	<path class="st0" d="M0,198c0.8,8.3,1.2,16.6,2.5,24.8c5.4,35.7,19.8,67.4,43.1,94.9c30.2,35.6,68.4,57.9,114.4,66
		c40.7,7.2,80.1,2.1,117.2-16.2c54-26.7,89-69.5,103.9-127.9c18.6-73-8.2-150.5-67.2-197.4c-28.3-22.4-60.3-36-96-40.7
		c-6.1-0.8-12.3-1.1-18.4-1.7C262,0,324.5,0,387,0c0,129,0,258,0,387c-128.9,0-257.9,0-387,0C0,324.1,0,261,0,198z"/>
	<path class="st0" d="M187.5,0c-6.8,0.6-13.6,1.1-20.4,2c-32.2,4.3-61.6,16.1-87.7,35.5C42,65.1,17.4,101.7,5.8,146.8
		c-3.3,12.9-5.1,26.1-5.6,39.5c0,0.9-0.2,1.8-0.3,2.7c0-63,0-125.9,0-189C62.5,0,125,0,187.5,0z"/>
	<path class="st0" d="M282.8,103c-0.9,0.3-1.9,1-2.8,1c-8.2,0.2-16.5,0.4-24.7,0.5c-5.5,0-11-0.3-16.5-0.3c-1.7,0-2.3-0.6-2.8-2.2
		c-3.6-11.1-7.3-22.1-11-33.1c-0.5-1.5-1.4-2.8-2.2-4.2c-1.4-2.3-3.1-3.9-6.2-4.3c-6.2-0.8-11.2-4.5-16.3-7.8
		c-6.5-4.2-12.9-8.6-19.6-12.4c-11.5-6.4-22.8-5.6-32.9,3c-6.6,5.6-12.6,11.9-19.2,17.5c-4.6,4-9.8,7.4-14.6,11.2
		c-0.6,0.4-1.1,1.4-1,2.1c1.1,14.1,2.2,28.2,3.3,42.3c0.1,1.5,0.2,3,0.3,4.5c0.3,4.1,0.3,4.1-3.5,5.7c-13.8,5.7-28.2,8.4-42.9,9.5
		c-1.7,0.1-3.3,0.2-5,0.4c-0.3,0-0.6,0.2-1.8,0.4c1.4,1.5,2.4,2.9,3.7,3.8c5.8,3.7,11.6,7.5,17.6,10.9c8.3,4.6,17,8.3,26.3,10.7
		c7.1,1.9,11.4,7.1,14.5,13.5c2.6,5.4,3.8,11.2,4.6,17c0.1,1.1,0.5,2.3,1.1,3.2c7.2,9.4,12.4,19.9,15.6,31.3
		c2.3,8.2,5.7,15.4,14.1,19.8c-12,10.5-23.4,20.4-34.6,30.2c8,10.5,15.9,20.7,23.9,31.1c-3.3,3.1-6.3,5.8-9.3,8.6
		c12.8,12.7,22.5,27.1,27,44.7c-60.4-6.9-133-59.7-143.5-147.8C12.7,117.2,81.9,39.4,162.9,25.8c0.1,0.1,0.2,0.1,0.2,0.2
		c1.9,5.6,5.8,7.5,11.6,8.3c7.8,1,14.4,5.3,20.9,9.6c4.5,2.9,9,6,13.8,8.5c3,1.5,6.5,1.8,9.7,2.9c1.7,0.6,3.7,1.5,4.6,2.9
		c2.7,4.1,5.4,8.3,7.1,12.8c3.4,8.9,6.1,18.1,9,27.2c0.4,1.4,0.8,2,2.5,2.1c12.6,0.6,25.1,1.2,37.7,1.9c0.8,0,1.7,0.1,2.5,0.1
		C282.6,102.4,282.7,102.7,282.8,103z"/>
	<path class="st0" d="M159.7,214.9c5.9,3,6.3,3.8,5.4,10.2c-0.3,1.9-0.7,3.9,1.6,5c-2.8,2-5.2,1.3-6.2-2.2
		c-1.2-4.1-1.9-8.3-2.5-12.4c-0.7-5-1.1-10.1-1.6-15.4c-2.2,0.7-4.3,1.3-6.5,2c-3.6-6.4-7.2-12.8-10.9-19.3
		c6.7-6.8,15-10.1,24.2-11.9c-0.5,6.1-1.1,12-1.5,17.8c-0.2,2.5,0.1,5,0.3,7.5c0.2,2.1,1.3,3,3.4,2.2c3.1-1.2,6.2-2.4,9.2-3.8
		c2.9-1.2,4.1-0.8,5.3,2.1c0.3,0.7,0.3,1.5,0.6,2.2c0.2,0.6,0.6,1.5,0.9,1.5c0.6,0,1.5-0.3,1.9-0.8c1.6-1.7,1.4-5.7-0.1-7.6
		c-0.6-0.9-1.3-2.1-1.1-3c0.1-0.6,1.7-1.1,2.7-1.2c1.8-0.2,3.7-0.2,5.5,0c4,0.4,4.5,0.1,6.2-3.7c0.2-0.5,0.4-0.9,0.7-1.7
		c7.2,4.4,13.2,9.9,17.9,16.8c-0.4-5.9-11.6-17.4-19.7-22c-0.3,1.6-0.3,3.2-0.8,4.6c-0.4,1.3-1.3,2.5-2.1,3.9
		c-3.6-2.6-6.8-1.9-9.9,0c-0.7,0.4-1.8,0.6-2.7,0.5c-2.4-0.5-4.8-1.3-7.3-1.8c-1.7-0.3-2.1-1.2-2-2.8c0.1-6.2,0.1-12.3,0-18.5
		c-0.1-2.2,0.9-3.5,2.9-3.6c3.5-0.1,6.9,0,10.4,0.2c1.5,0.1,3,0.4,4.4,0.6c4.3,0.7,8.2,0,12-2.1c7.3-4,14.7-7.8,22.8-9.9
		c4.5-1.1,9-1.5,13.6-0.2c1.6,0.5,2.3,1.2,2.2,3c-0.8,8.8-1.4,17.6-2,26.4c0,0.6,0.2,1.6,0.6,1.9c2.4,1.7,4.9,3.3,7.3,5
		c0.2-0.2,0.5-0.3,0.7-0.5c-0.6-7.5-1.2-15-1.8-22.5c0.2-0.1,0.4-0.2,0.6-0.3c2.8,3.1,4.8,6.7,6.6,10.9c0.2-1.2,0.8-2.4,0.6-3.6
		c-0.3-3.4-1-6.7-1.4-10.1c-0.2-1.5,0-3,0-4.4c0.4-0.1,0.7-0.3,1.1-0.4c1.2,1.4,2.4,2.8,3.7,4.4c-0.2-4.6,0.9-9.4-1.9-14.5
		c-2.2,4.2-4.2,7.8-6.3,11.9c-2.5-3.2-2-5.8-0.8-8.4c1.8-4,5.1-5.7,9.9-5.9c0.4,4.5,1,8.8,1.2,13.2c0.5,8.2,0.4,16.4-2.5,24.2
		c-1.1,2.9-2.9,5.6-4.6,8.2c-0.6,0.9-1.7,1.4-3,2.3c0.6,6.3,1,13.1,1.9,19.9c0.5,3.8-0.1,7.1-1.7,10.6
		c-13.4,29.1-26.1,58.5-37.4,88.5c-0.1,0.4-0.3,0.7-0.6,1.5c-1-1.3-1.7-2.4-2.7-3.4c-4.1-3.8-8.3-7.4-12.4-11.2
		c-3.7-3.5-7.4-7.2-10.9-10.9c-1.1-1.2-1.7-2.8-2.6-4.2c5.1-3.8,10.1-7.4,15-11.2c15.5-12.2,29.5-25.8,40.4-42.3
		c4.4-6.6,8.2-13.5,9.9-21.4c0.3-1.5,0.3-3.1,0.3-4.7c-3.1,14.2-12.3,24.5-22.4,34.1c-3.2,3.1-7,5.7-10.2,8.8
		c-5.6,5.3-12.6,6.7-19.9,7.4c-1.2,0.1-2.5,0.1-3.7,0.1c-10.1,0-17.3-8.8-15.4-18.7c0.1-0.7,1-1.6,1.8-1.8
		c8.8-2.8,17.6-5.4,26.4-8.4c2.5-0.8,4.7-2.5,7.4-3.9c-2.4-1.5-4.5-3-6.7-4c-0.8-0.4-2.2-0.1-3,0.4c-7.7,3.9-15.8,4.2-24.1,2.9
		c-1-0.1-2-0.4-2.8-0.9c-1-0.6-1.8-1.5-2.7-2.3c1-0.8,1.9-1.9,3-2.2c2.1-0.6,4.4-0.9,6.6-1.1c6.6-0.4,13.1-0.7,19.7-1.1
		c1.8-0.1,3.6-0.8,5.4-1.2c0-0.3-0.1-0.6-0.1-0.9c-5.3-0.6-10.7-1-16-1.9c-7-1.1-13.5,1.5-20.2,2c-0.4,0-0.9,0.3-1.3,0.6
		C165,210,162.5,212.4,159.7,214.9z"/>
	<path class="st0" d="M296.3,230.2c-11.7-7-23.1-13.9-34.8-20.9c-0.9,2-1.6,3.8-2.6,6c-1.4-1.5-2.6-2.8-3.9-4.2
		c1.8-2.8,3.5-5.6,5.4-8.6c14.7,9,29.2,18,44,27.1c-4.2,5.3-8.3,10.4-12.3,15.6c-20.5,26.5-40.6,53.2-58.4,81.7
		c-6.9,11-13.5,22.2-17.6,34.6c-0.2,0.5-0.8,0.9-1.3,1.2c-0.7,0.3-1.5,0.3-2.2,0.4c-0.7,0.1-1.3,0-2.4,0c1.9-4.1,3.6-8.1,5.5-11.9
		c13.3-26.8,29.6-51.7,46.9-76c10.3-14.4,21.2-28.4,31.9-42.6C295.1,231.8,295.6,231.2,296.3,230.2z"/>
	<path class="st0" d="M156,88.1c5.1-1,10.2-2.2,15.3-2.9c16-2.3,32-2.5,48.1-2c1.6,0.1,2.4,0.5,2.8,2.1c1.5,6,3.1,11.9,4.7,17.9
		c0.1,0.4,0,0.8,0,1.1C203.7,97,179.8,93.4,156,88.8C156,88.6,156,88.3,156,88.1z"/>
	<path class="st0" d="M180.4,355c0-19.5,0-39,0-58.4C191.5,307.2,192,340.5,180.4,355z"/>
	<path class="st0" d="M195.5,350.6c0-7.6,0-16.2,0-24.8c0-0.5,0.5-1.2,0.9-1.6c3.1-2.6,6.3-5.2,9.7-8
		C202.5,328.3,198.8,340,195.5,350.6z"/>
</g>
</svg>
